# This file uses centimeters as units for non-parametric coordinates.

mtllib brows.mtl
g skinCluster15Set tweakSet15
v -0.609852 14.899079 0.714537
v -0.605930 14.902121 0.700586
v -0.620069 14.890809 0.665962
v -0.560533 14.925030 0.769756
v -0.609045 14.895407 0.716036
v -0.605793 14.892764 0.706039
v -0.565028 14.906127 0.786911
v -0.554931 14.903682 0.774330
v -0.573179 14.918019 0.789027
v -0.526455 14.939875 0.813170
v -0.528965 14.913053 0.830755
v -0.519862 14.911297 0.816186
v -0.476229 14.912861 0.850168
v -0.539344 14.931188 0.834999
v -0.478714 14.916582 0.866190
v -0.465412 14.911972 0.856110
v -0.479928 14.948647 0.874736
v -0.475890 14.960323 0.852397
v -0.467462 14.916551 0.873250
v -0.404822 14.901446 0.883599
v -0.466051 14.951097 0.885028
v -0.462117 14.963413 0.863040
v -0.409109 14.906530 0.900900
v -0.354348 14.889294 0.902155
v -0.399076 14.945852 0.914837
v -0.388637 14.957235 0.897652
v -0.357196 14.895041 0.919366
v -0.302144 14.874285 0.918263
v -0.342367 14.935953 0.935091
v -0.333606 14.946850 0.916427
v -0.304370 14.881552 0.935562
v -0.284192 14.921785 0.951764
v -0.275532 14.934734 0.934141
v -0.217696 14.853618 0.945790
v -0.215753 14.845485 0.928122
v -0.208006 14.905828 0.963693
v -0.207162 14.913912 0.947181
v -0.152414 14.820605 0.950991
v -0.150723 14.814322 0.931996
v -0.130426 14.882668 0.972444
v -0.127197 14.882205 0.958308
v -0.130014 14.818874 0.952159
v -0.127785 14.812874 0.933507
v -0.105475 14.841166 0.952861
v -0.109161 14.846126 0.968594
v -0.106060 14.880482 0.980982
v -0.106490 14.888580 0.966526
v -0.098310 14.878035 0.977708
v -0.093143 14.875231 0.961872
v 0.609680 14.899079 0.714537
v 0.605759 14.902121 0.700586
v 0.619891 14.890809 0.665962
v 0.560382 14.925029 0.769756
v 0.608873 14.895407 0.716036
v 0.605622 14.892764 0.706039
v 0.564875 14.906127 0.786911
v 0.554783 14.903681 0.774330
v 0.573023 14.918019 0.789027
v 0.526319 14.939874 0.813171
v 0.528828 14.913052 0.830757
v 0.519730 14.911296 0.816187
v 0.476115 14.912862 0.850170
v 0.539203 14.931188 0.834999
v 0.478599 14.916583 0.866191
v 0.465303 14.911973 0.856112
v 0.479813 14.948645 0.874737
v 0.475776 14.960320 0.852399
v 0.467352 14.916552 0.873252
v 0.404740 14.901447 0.883600
v 0.465942 14.951096 0.885029
v 0.462010 14.963411 0.863041
v 0.409025 14.906531 0.900900
v 0.354288 14.889294 0.902155
v 0.398997 14.945852 0.914837
v 0.388562 14.957235 0.897652
v 0.357135 14.895041 0.919366
v 0.302108 14.874285 0.918263
v 0.342313 14.935953 0.935091
v 0.333555 14.946850 0.916428
v 0.304333 14.881552 0.935563
v 0.284163 14.921785 0.951765
v 0.275507 14.934734 0.934142
v 0.217666 14.853610 0.945790
v 0.215723 14.845476 0.928122
v 0.208004 14.905828 0.963693
v 0.207164 14.913912 0.947181
v 0.152421 14.820605 0.950991
v 0.150731 14.814322 0.931996
v 0.130442 14.882667 0.972444
v 0.127214 14.882204 0.958308
v 0.130030 14.818874 0.952159
v 0.127803 14.812874 0.933507
v 0.105503 14.841166 0.952861
v 0.109187 14.846126 0.968594
v 0.106088 14.880482 0.980982
v 0.106517 14.888580 0.966526
v 0.098341 14.878035 0.977708
v 0.093176 14.875231 0.961872
vt 0.471216 0.860909
vt 0.472866 0.862761
vt 0.484778 0.853922
vt 0.449046 0.880433
vt 0.469581 0.859116
vt 0.469105 0.857246
vt 0.442811 0.869830
vt 0.441012 0.867412
vt 0.445438 0.875522
vt 0.433126 0.892059
vt 0.423716 0.878263
vt 0.422827 0.874768
vt 0.411765 0.877654
vt 0.427909 0.885475
vt 0.412835 0.881862
vt 0.400178 0.878499
vt 0.415231 0.891280
vt 0.419397 0.898388
vt 0.401204 0.882534
vt 0.382490 0.878537
vt 0.402042 0.895099
vt 0.403882 0.902334
vt 0.383573 0.882795
vt 0.363994 0.880033
vt 0.382451 0.896926
vt 0.383028 0.903850
vt 0.364858 0.883428
vt 0.345357 0.880974
vt 0.363920 0.898305
vt 0.364340 0.904592
vt 0.346264 0.884542
vt 0.344263 0.899873
vt 0.344521 0.905525
vt 0.327720 0.885867
vt 0.326778 0.882162
vt 0.323415 0.901416
vt 0.322570 0.907363
vt 0.312529 0.886449
vt 0.311710 0.883231
vt 0.304204 0.904737
vt 0.305340 0.909203
vt 0.305364 0.886096
vt 0.304589 0.883051
vt 0.294987 0.896333
vt 0.296684 0.898371
vt 0.292849 0.911128
vt 0.293425 0.913393
vt 0.290048 0.909386
vt 0.286501 0.909350
vt 0.471216 0.860909
vt 0.472866 0.862761
vt 0.449046 0.880433
vt 0.445438 0.875522
vt 0.484778 0.853922
vt 0.469581 0.859116
vt 0.442811 0.869830
vt 0.441012 0.867412
vt 0.469105 0.857246
vt 0.433126 0.892059
vt 0.427909 0.885475
vt 0.423716 0.878263
vt 0.422827 0.874768
vt 0.412835 0.881862
vt 0.411765 0.877654
vt 0.415231 0.891280
vt 0.401204 0.882534
vt 0.400178 0.878499
vt 0.419397 0.898388
vt 0.402042 0.895099
vt 0.383573 0.882795
vt 0.382490 0.878537
vt 0.403882 0.902334
vt 0.382451 0.896926
vt 0.364858 0.883428
vt 0.363994 0.880033
vt 0.383028 0.903850
vt 0.363920 0.898305
vt 0.346264 0.884542
vt 0.345357 0.880974
vt 0.364340 0.904592
vt 0.344263 0.899873
vt 0.344521 0.905525
vt 0.327720 0.885867
vt 0.326778 0.882162
vt 0.323415 0.901416
vt 0.322570 0.907363
vt 0.312529 0.886449
vt 0.311710 0.883231
vt 0.304204 0.904737
vt 0.305340 0.909203
vt 0.296684 0.898371
vt 0.305364 0.886096
vt 0.304589 0.883051
vt 0.294987 0.896333
vt 0.293425 0.913393
vt 0.292849 0.911128
vt 0.290048 0.909386
vt 0.286501 0.909350
vn -0.846301 0.375230 0.378122
vn -0.726466 0.237125 0.644995
vn -0.543266 0.784643 0.298661
vn -0.694309 0.691356 0.199906
vn -0.936534 0.160944 0.311449
vn -0.762897 -0.400889 0.507223
vn -0.491057 -0.602796 0.628888
vn -0.190655 -0.909236 0.370056
vn -0.576554 -0.686607 0.442896
vn -0.660278 0.226148 0.716163
vn -0.501666 0.800344 0.328299
vn -0.133268 -0.932401 0.335958
vn -0.442173 -0.580463 0.683774
vn -0.158156 -0.925511 0.344115
vn -0.427501 -0.503857 0.750580
vn -0.565200 0.226244 0.793324
vn -0.208021 -0.895357 0.393781
vn -0.403740 -0.438490 0.802945
vn -0.424899 0.811215 0.401735
vn -0.463942 0.171589 0.869089
vn -0.246640 -0.860966 0.444866
vn -0.375874 -0.401392 0.835227
vn -0.322622 0.802142 0.502477
vn -0.387148 0.101377 0.916427
vn -0.261840 -0.817966 0.512221
vn -0.335278 -0.372469 0.865365
vn -0.239477 0.768208 0.593723
vn -0.310668 0.049987 0.949203
vn -0.244823 -0.788813 0.563769
vn -0.271606 -0.371852 0.887669
vn -0.163298 0.704676 0.690483
vn -0.224427 -0.013932 0.974391
vn -0.085498 0.613388 0.785140
vn -0.245210 -0.805322 0.539748
vn -0.217190 -0.399214 0.890762
vn -0.169633 -0.098545 0.980568
vn -0.050482 0.510582 0.858346
vn -0.330118 -0.836381 0.437595
vn -0.207616 -0.408339 0.888907
vn -0.166432 -0.141183 0.975893
vn -0.106752 0.462147 0.880355
vn -0.150286 -0.497413 0.854397
vn -0.060255 -0.442863 0.894562
vn 0.024574 -0.841275 0.540049
vn 0.257744 -0.755416 0.602424
vn -0.072063 -0.057536 0.995739
vn -0.094020 0.512276 0.853659
vn 0.128266 -0.365752 0.921832
vn 0.396503 -0.607652 0.688146
vn 0.846408 0.375111 0.378002
vn 0.694468 0.691208 0.199864
vn 0.543436 0.784540 0.298621
vn 0.726618 0.237070 0.644844
vn 0.936585 0.160881 0.311328
vn 0.763039 -0.400786 0.507092
vn 0.491222 -0.602732 0.628820
vn 0.190736 -0.909221 0.370050
vn 0.576724 -0.686506 0.442831
vn 0.501832 0.800255 0.328263
vn 0.660443 0.226104 0.716025
vn 0.442331 -0.580412 0.683714
vn 0.133326 -0.932394 0.335955
vn 0.427656 -0.503817 0.750519
vn 0.158225 -0.925501 0.344112
vn 0.565370 0.226212 0.793212
vn 0.403890 -0.438458 0.802887
vn 0.208109 -0.895339 0.393774
vn 0.425053 0.811150 0.401703
vn 0.464104 0.171572 0.869006
vn 0.376017 -0.401367 0.835174
vn 0.246743 -0.860943 0.444854
vn 0.322750 0.802105 0.502454
vn 0.387294 0.101370 0.916367
vn 0.335410 -0.372450 0.865322
vn 0.261948 -0.817941 0.512206
vn 0.239577 0.768188 0.593708
vn 0.310793 0.049985 0.949163
vn 0.271717 -0.371840 0.887640
vn 0.244925 -0.788792 0.563754
vn 0.163368 0.704667 0.690475
vn 0.224521 -0.013932 0.974370
vn 0.085535 0.613386 0.785138
vn 0.217282 -0.399205 0.890743
vn 0.245312 -0.805301 0.539734
vn 0.169706 -0.098543 0.980555
vn 0.050504 0.510581 0.858345
vn 0.207704 -0.408331 0.888890
vn 0.330248 -0.836340 0.437574
vn 0.166503 -0.141181 0.975882
vn 0.106799 0.462145 0.880350
vn 0.060282 -0.442862 0.894561
vn 0.150351 -0.497408 0.854389
vn -0.024584 -0.841274 0.540049
vn -0.257851 -0.755394 0.602406
vn 0.094061 0.512274 0.853656
vn 0.072095 -0.057536 0.995737
vn -0.128322 -0.365749 0.921825
vn -0.396651 -0.607610 0.688098
s 1
g Brows Azula_Geo
usemtl rampShader2SG
f 1/1/1 9/9/2 4/4/3 2/2/4
f 2/2/4 3/3/5 1/1/1
f 1/1/1 3/3/5 5/5/6
f 5/5/6 7/7/7 9/9/2 1/1/1
f 8/8/8 7/7/7 5/5/6 6/6/9
f 4/4/3 9/9/2 14/14/10 10/10/11
f 7/7/7 8/8/8 12/12/12 11/11/13
f 9/9/2 7/7/7 11/11/13 14/14/10
f 11/11/13 12/12/12 13/13/14 15/15/15
f 14/14/10 11/11/13 15/15/15 17/17/16
f 15/15/15 13/13/14 16/16/17 19/19/18
f 10/10/11 14/14/10 17/17/16 18/18/19
f 17/17/16 15/15/15 19/19/18 21/21/20
f 19/19/18 16/16/17 20/20/21 23/23/22
f 18/18/19 17/17/16 21/21/20 22/22/23
f 21/21/20 19/19/18 23/23/22 25/25/24
f 23/23/22 20/20/21 24/24/25 27/27/26
f 22/22/23 21/21/20 25/25/24 26/26/27
f 25/25/24 23/23/22 27/27/26 29/29/28
f 27/27/26 24/24/25 28/28/29 31/31/30
f 26/26/27 25/25/24 29/29/28 30/30/31
f 29/29/28 27/27/26 31/31/30 32/32/32
f 30/30/31 29/29/28 32/32/32 33/33/33
f 31/31/30 28/28/29 35/35/34 34/34/35
f 32/32/32 31/31/30 34/34/35 36/36/36
f 33/33/33 32/32/32 36/36/36 37/37/37
f 34/34/35 35/35/34 39/39/38 38/38/39
f 36/36/36 34/34/35 38/38/39 40/40/40
f 37/37/37 36/36/36 40/40/40 41/41/41
f 40/40/40 38/38/39 42/42/42 45/45/43
f 38/38/39 39/39/38 43/43/44 42/42/42
f 42/42/42 43/43/44 44/44/45 45/45/43
f 40/40/40 46/46/46 47/47/47 41/41/41
f 40/40/40 45/45/43 48/48/48 46/46/46
f 45/45/43 44/44/45 49/49/49 48/48/48
f 46/46/46 48/48/48 49/49/49 47/47/47
f 5/5/6 3/3/5 6/6/9
s 2
f 50/50/50 51/51/51 53/52/52 58/53/53
f 51/51/51 50/50/50 52/54/54
f 50/50/50 54/55/55 52/54/54
f 54/55/55 50/50/50 58/53/53 56/56/56
f 57/57/57 55/58/58 54/55/55 56/56/56
f 53/52/52 59/59/59 63/60/60 58/53/53
f 56/56/56 60/61/61 61/62/62 57/57/57
f 58/53/53 63/60/60 60/61/61 56/56/56
f 60/61/61 64/63/63 62/64/64 61/62/62
f 63/60/60 66/65/65 64/63/63 60/61/61
f 64/63/63 68/66/66 65/67/67 62/64/64
f 59/59/59 67/68/68 66/65/65 63/60/60
f 66/65/65 70/69/69 68/66/66 64/63/63
f 68/66/66 72/70/70 69/71/71 65/67/67
f 67/68/68 71/72/72 70/69/69 66/65/65
f 70/69/69 74/73/73 72/70/70 68/66/66
f 72/70/70 76/74/74 73/75/75 69/71/71
f 71/72/72 75/76/76 74/73/73 70/69/69
f 74/73/73 78/77/77 76/74/74 72/70/70
f 76/74/74 80/78/78 77/79/79 73/75/75
f 75/76/76 79/80/80 78/77/77 74/73/73
f 78/77/77 81/81/81 80/78/78 76/74/74
f 79/80/80 82/82/82 81/81/81 78/77/77
f 80/78/78 83/83/83 84/84/84 77/79/79
f 81/81/81 85/85/85 83/83/83 80/78/78
f 82/82/82 86/86/86 85/85/85 81/81/81
f 83/83/83 87/87/87 88/88/88 84/84/84
f 85/85/85 89/89/89 87/87/87 83/83/83
f 86/86/86 90/90/90 89/89/89 85/85/85
f 89/89/89 94/91/91 91/92/92 87/87/87
f 87/87/87 91/92/92 92/93/93 88/88/88
f 91/92/92 94/91/91 93/94/94 92/93/93
f 89/89/89 90/90/90 96/95/95 95/96/96
f 89/89/89 95/96/96 97/97/97 94/91/91
f 94/91/91 97/97/97 98/98/98 93/94/94
f 95/96/96 96/95/95 98/98/98 97/97/97
f 54/55/55 55/58/58 52/54/54
