# This file uses centimeters as units for non-parametric coordinates.

mtllib lashes.mtl
g skinCluster20Set tweakSet20
v -0.391032 14.746837 0.820368
v -0.343034 14.741456 0.831731
v -0.439690 14.750258 0.800100
v -0.304978 14.735654 0.835387
v -0.490504 14.752918 0.772904
v -0.269049 14.725134 0.833810
v -0.240987 14.715244 0.830904
v -0.206486 14.695981 0.812921
v -0.531126 14.751656 0.740903
v -0.568052 14.748946 0.705276
v -0.570394 14.731020 0.688298
v -0.564129 14.697842 0.688928
v -0.421401 14.779872 0.844642
v -0.374218 14.775032 0.854348
v -0.477936 14.784801 0.820142
v -0.335881 14.770027 0.856635
v -0.522195 14.787674 0.788500
v -0.290372 14.760183 0.855245
v -0.250815 14.746462 0.847171
v -0.222283 14.725305 0.830447
v -0.559080 14.787458 0.746187
v -0.601247 14.782652 0.668738
v -0.596834 14.753113 0.672674
v -0.375156 14.742391 0.806304
v -0.326916 14.739542 0.812357
v -0.424846 14.744990 0.787665
v -0.288397 14.733740 0.808906
v -0.472238 14.747123 0.759354
v -0.256747 14.724307 0.801720
v -0.235776 14.712594 0.796086
v -0.215297 14.695730 0.790896
v -0.200784 14.673203 0.783488
v -0.485577 14.648654 0.743212
v -0.516811 14.746018 0.723542
v -0.553494 14.741125 0.678312
v -0.555597 14.724247 0.674193
v -0.547508 14.699581 0.686738
v -0.522872 14.666266 0.709979
v -0.535416 14.674872 0.707209
v 0.343156 14.741455 0.831729
v 0.391119 14.746834 0.820355
v 0.439755 14.750250 0.800095
v 0.305156 14.735655 0.835384
v 0.490626 14.752898 0.772915
v 0.269242 14.725134 0.833809
v 0.241200 14.715240 0.830899
v 0.206588 14.695978 0.812923
v 0.531214 14.751623 0.740922
v 0.568461 14.749032 0.705012
v 0.570870 14.731498 0.687715
v 0.564205 14.697911 0.688925
v 0.374418 14.775031 0.854346
v 0.421723 14.779869 0.844630
v 0.478205 14.784793 0.820136
v 0.336138 14.770028 0.856632
v 0.522531 14.787654 0.788511
v 0.290658 14.760183 0.855243
v 0.251100 14.746457 0.847167
v 0.222473 14.725302 0.830448
v 0.559325 14.787426 0.746206
v 0.601489 14.782738 0.668474
v 0.597232 14.753591 0.672091
v 0.326923 14.739541 0.812355
v 0.375160 14.742388 0.806288
v 0.424840 14.744982 0.787656
v 0.288402 14.733741 0.808903
v 0.472234 14.747103 0.759365
v 0.256751 14.724307 0.801718
v 0.235781 14.712589 0.796080
v 0.215299 14.695727 0.790898
v 0.200796 14.673215 0.783490
v 0.485589 14.648661 0.743228
v 0.516796 14.745986 0.723566
v 0.553730 14.741211 0.678047
v 0.556002 14.724725 0.673610
v 0.547534 14.699651 0.686735
v 0.522858 14.666269 0.709961
v 0.535445 14.674875 0.707191
vt 0.837812 0.414013
vt 0.957350 0.414013
vt 0.957350 0.533551
vt 0.837812 0.533551
vt 0.837812 0.414013
vt 0.957350 0.414013
vt 0.957350 0.533551
vt 0.837812 0.533551
vt 0.837812 0.414013
vt 0.957350 0.414013
vt 0.957350 0.533551
vt 0.837812 0.533551
vt 0.837812 0.414013
vt 0.957350 0.414013
vt 0.957350 0.533551
vt 0.837812 0.533551
vt 0.837812 0.414013
vt 0.957350 0.414013
vt 0.957350 0.533551
vt 0.837812 0.533551
vt 0.837812 0.414013
vt 0.957350 0.414013
vt 0.957350 0.533551
vt 0.837812 0.533551
vt 0.837812 0.414013
vt 0.957350 0.414013
vt 0.957350 0.533551
vt 0.837812 0.533551
vt 0.837812 0.414013
vt 0.957350 0.473782
vt 0.837812 0.533551
vt 0.837812 0.414013
vt 0.957350 0.473782
vt 0.837812 0.533551
vt 0.837812 0.414013
vt 0.837812 0.533551
vt 0.957350 0.533551
vt 0.957350 0.414013
vt 0.837812 0.414013
vt 0.837812 0.533551
vt 0.957350 0.533551
vt 0.957350 0.414013
vt 0.837812 0.414013
vt 0.837812 0.533551
vt 0.957350 0.533551
vt 0.957350 0.414013
vt 0.837812 0.414013
vt 0.957350 0.414013
vt 0.957350 0.533551
vt 0.837812 0.533551
vt 0.837812 0.414013
vt 0.957350 0.414013
vt 0.957350 0.533551
vt 0.837812 0.533551
vt 0.837812 0.414013
vt 0.957350 0.414013
vt 0.957350 0.533551
vt 0.837812 0.533551
vt 0.837812 0.414013
vt 0.957350 0.414013
vt 0.957350 0.533551
vt 0.837812 0.533551
vt 0.837812 0.414013
vt 0.957350 0.414013
vt 0.957350 0.533551
vt 0.837812 0.533551
vt 0.837812 0.414013
vt 0.957350 0.414013
vt 0.957350 0.533551
vt 0.837812 0.533551
vt 0.837812 0.414013
vt 0.957350 0.414013
vt 0.957350 0.533551
vt 0.837812 0.533551
vt 0.837812 0.414013
vt 0.957350 0.414013
vt 0.957350 0.533551
vt 0.837812 0.533551
vt 0.837812 0.414013
vt 0.957350 0.414013
vt 0.957350 0.533551
vt 0.837812 0.533551
vt 0.837812 0.414013
vt 0.837812 0.533551
vt 0.957350 0.533551
vt 0.957350 0.414013
vt 0.837812 0.414013
vt 0.837812 0.533551
vt 0.957350 0.533551
vt 0.957350 0.414013
vt 0.837812 0.414013
vt 0.837812 0.533551
vt 0.957350 0.533551
vt 0.957350 0.414013
vt 0.837812 0.414013
vt 0.957350 0.414013
vt 0.957350 0.533551
vt 0.837812 0.414013
vt 0.957350 0.414013
vt 0.957350 0.533551
vt 0.837812 0.533551
vt 0.837812 0.414013
vt 0.957350 0.414013
vt 0.957350 0.533551
vt 0.837812 0.533551
vt 0.837812 0.414013
vt 0.957350 0.414013
vt 0.957350 0.533551
vt 0.837812 0.533551
vt 0.837812 0.414013
vt 0.957350 0.414013
vt 0.957350 0.533551
vt 0.837812 0.533551
vt 0.837812 0.414013
vt 0.957350 0.414013
vt 0.957350 0.533551
vt 0.837812 0.533551
vt 0.837812 0.414013
vt 0.957350 0.414013
vt 0.957350 0.533551
vt 0.837812 0.533551
vt 0.837812 0.414013
vt 0.957350 0.414013
vt 0.957350 0.533551
vt 0.837812 0.533551
vt 0.837812 0.473782
vt 0.957350 0.414013
vt 0.957350 0.533551
vt 0.837812 0.473782
vt 0.957350 0.414013
vt 0.957350 0.533551
vt 0.837812 0.414013
vt 0.837812 0.533551
vt 0.957350 0.533551
vt 0.957350 0.414013
vt 0.837812 0.414013
vt 0.837812 0.533551
vt 0.957350 0.533551
vt 0.957350 0.414013
vt 0.837812 0.414013
vt 0.837812 0.533551
vt 0.957350 0.533551
vt 0.957350 0.414013
vt 0.837812 0.414013
vt 0.957350 0.414013
vt 0.957350 0.533551
vt 0.837812 0.533551
vt 0.837812 0.414013
vt 0.957350 0.414013
vt 0.957350 0.533551
vt 0.837812 0.533551
vt 0.837812 0.414013
vt 0.957350 0.414013
vt 0.957350 0.533551
vt 0.837812 0.533551
vt 0.837812 0.414013
vt 0.957350 0.414013
vt 0.957350 0.533551
vt 0.837812 0.533551
vt 0.837812 0.414013
vt 0.957350 0.414013
vt 0.957350 0.533551
vt 0.837812 0.533551
vt 0.837812 0.414013
vt 0.957350 0.414013
vt 0.957350 0.533551
vt 0.837812 0.533551
vt 0.837812 0.414013
vt 0.957350 0.414013
vt 0.957350 0.533551
vt 0.837812 0.533551
vt 0.837812 0.414013
vt 0.957350 0.414013
vt 0.957350 0.533551
vt 0.837812 0.533551
vt 0.837812 0.414013
vt 0.957350 0.414013
vt 0.957350 0.533551
vt 0.837812 0.533551
vt 0.837812 0.414013
vt 0.837812 0.533551
vt 0.957350 0.533551
vt 0.957350 0.414013
vt 0.837812 0.414013
vt 0.837812 0.533551
vt 0.957350 0.533551
vt 0.957350 0.414013
vt 0.837812 0.414013
vt 0.837812 0.533551
vt 0.957350 0.533551
vt 0.957350 0.414013
vt 0.837812 0.414013
vt 0.957350 0.414013
vt 0.837812 0.533551
vn -0.127322 -0.974307 0.185781
vn -0.141317 -0.989952 0.005019
vn -0.180182 -0.749828 0.636626
vn -0.269188 -0.728259 0.630219
vn -0.189926 -0.933304 0.304748
vn -0.324583 -0.735925 0.594189
vn -0.267372 -0.956496 -0.116741
vn -0.173878 -0.766744 0.617956
vn -0.206224 -0.934776 0.289250
vn -0.379708 -0.750443 0.540978
vn -0.378401 -0.920570 -0.096761
vn -0.193655 -0.790655 0.580829
vn -0.482204 -0.875163 0.039609
vn -0.110361 -0.751103 0.650895
vn -0.564737 -0.805547 0.179350
vn -0.422898 -0.819124 0.387547
vn -0.689298 -0.584746 0.427715
vn -0.584655 -0.772856 0.246722
vn -0.584655 -0.772856 0.246722
vn -0.584655 -0.772856 0.246722
vn -0.491594 -0.718686 0.491758
vn -0.188488 -0.945310 0.266197
vn -0.613479 -0.554855 0.561943
vn 0.100143 -0.876703 0.470493
vn -0.394545 -0.195006 0.897946
vn 0.555230 0.091684 0.826628
vn 0.310189 0.516647 0.798034
vn 0.218334 0.387142 0.895796
vn 0.143806 0.672127 0.726336
vn 0.143806 0.672127 0.726336
vn -0.233482 -0.632574 0.738469
vn -0.316876 -0.652621 0.688241
vn -0.364436 -0.664546 0.652353
vn -0.143683 -0.581424 0.800813
vn -0.461002 -0.658871 0.594446
vn -0.119272 -0.558960 0.820572
vn 0.004874 -0.492913 0.870065
vn 0.234261 -0.397099 0.887375
vn -0.631989 -0.536142 0.559591
vn -0.721356 -0.379923 0.579054
vn -0.748770 -0.225485 0.623298
vn 0.141268 -0.989958 0.005163
vn 0.127305 -0.974301 0.185827
vn 0.269209 -0.728278 0.630188
vn 0.180192 -0.749834 0.636616
vn 0.189822 -0.933270 0.304918
vn 0.324466 -0.735856 0.594338
vn 0.267373 -0.956490 -0.116788
vn 0.173872 -0.766727 0.617980
vn 0.206097 -0.934733 0.289478
vn 0.379543 -0.750351 0.541221
vn 0.378522 -0.920516 -0.096804
vn 0.193687 -0.790655 0.580818
vn 0.482220 -0.875154 0.039611
vn 0.110526 -0.751136 0.650829
vn 0.564626 -0.805636 0.179297
vn 0.422791 -0.819170 0.387568
vn 0.689175 -0.584947 0.427638
vn 0.584702 -0.773076 0.245920
vn 0.584702 -0.773076 0.245920
vn 0.584702 -0.773076 0.245920
vn 0.189349 -0.945361 0.265405
vn 0.491756 -0.718963 0.491190
vn -0.088985 -0.881951 0.462865
vn 0.614110 -0.557717 0.558409
vn -0.552044 0.101228 0.827648
vn 0.400908 -0.195990 0.894908
vn -0.310499 0.521636 0.794661
vn -0.226303 0.398516 0.888804
vn -0.143495 0.670912 0.727521
vn -0.143495 0.670912 0.727521
vn 0.316851 -0.652603 0.688269
vn 0.233578 -0.632621 0.738398
vn 0.364277 -0.664455 0.652535
vn 0.143647 -0.581394 0.800841
vn 0.460828 -0.658773 0.594690
vn 0.119299 -0.558963 0.820566
vn -0.004860 -0.492912 0.870066
vn -0.234040 -0.397217 0.887380
vn 0.632271 -0.536080 0.559331
vn 0.722002 -0.381767 0.577034
vn 0.750352 -0.230430 0.619576
s 1
g Lashes Azula_Geo
usemtl layeredShader3SG
f 24/1/1 25/2/2 2/3/3 1/4/4
f 26/5/5 24/6/1 1/7/4 3/8/6
f 25/9/2 27/10/7 4/11/8 2/12/3
f 28/13/9 26/14/5 3/15/6 5/16/10
f 27/17/7 29/18/11 6/19/12 4/20/8
f 29/21/11 30/22/13 7/23/14 6/24/12
f 30/25/13 31/26/15 8/27/16 7/28/14
f 31/29/15 32/30/17 8/31/16
s off
f 38/32/18 33/33/19 39/34/20
s 1
f 28/35/9 5/36/10 9/37/21 34/38/22
f 34/39/22 9/40/21 10/41/23 35/42/24
f 35/43/24 10/44/23 11/45/25 36/46/26
f 37/47/27 36/48/26 11/49/25 12/50/28
f 38/51/29 37/52/27 12/53/28 39/54/30
f 1/55/4 2/56/3 14/57/31 13/58/32
f 3/59/6 1/60/4 13/61/32 15/62/33
f 2/63/3 4/64/8 16/65/34 14/66/31
f 5/67/10 3/68/6 15/69/33 17/70/35
f 4/71/8 6/72/12 18/73/36 16/74/34
f 6/75/12 7/76/14 19/77/37 18/78/36
f 7/79/14 8/80/16 20/81/38 19/82/37
f 5/83/10 17/84/35 21/85/39 9/86/21
f 9/87/21 21/88/39 22/89/40 10/90/23
f 10/91/23 22/92/40 23/93/41 11/94/25
f 12/95/28 11/96/25 23/97/41
s 2
f 63/98/42 64/99/43 41/100/44 40/101/45
f 64/102/43 65/103/46 42/104/47 41/105/44
f 66/106/48 63/107/42 40/108/45 43/109/49
f 65/110/46 67/111/50 44/112/51 42/113/47
f 68/114/52 66/115/48 43/116/49 45/117/53
f 69/118/54 68/119/52 45/120/53 46/121/55
f 70/122/56 69/123/54 46/124/55 47/125/57
f 71/126/58 70/127/56 47/128/57
s off
f 72/129/59 77/130/60 78/131/61
s 2
f 73/132/62 48/133/63 44/134/51 67/135/50
f 74/136/64 49/137/65 48/138/63 73/139/62
f 75/140/66 50/141/67 49/142/65 74/143/64
f 75/144/66 76/145/68 51/146/69 50/147/67
f 76/148/68 77/149/70 78/150/71 51/151/69
f 40/152/45 41/153/44 53/154/72 52/155/73
f 41/156/44 42/157/47 54/158/74 53/159/72
f 43/160/49 40/161/45 52/162/73 55/163/75
f 42/164/47 44/165/51 56/166/76 54/167/74
f 45/168/53 43/169/49 55/170/75 57/171/77
f 46/172/55 45/173/53 57/174/77 58/175/78
f 47/176/57 46/177/55 58/178/78 59/179/79
f 48/180/63 60/181/80 56/182/76 44/183/51
f 49/184/65 61/185/81 60/186/80 48/187/63
f 50/188/67 62/189/82 61/190/81 49/191/65
f 50/192/67 51/193/69 62/194/82
